<svg xmlns="http://www.w3.org/2000/svg" width="512" height="512"><path fill="#090A11" d="M267 237h2a2363 2363 0 0 1 94 0 9653 9653 0 0 1 57 0c16 0 31 2 43 13 10 11 13 23 13 37v3a3585 3585 0 0 1 0 71c0 18 0 34-14 48-10 8-20 12-32 12h-3a2463 2463 0 0 1-95 0 7627 7627 0 0 1-59 0c-15 1-29-2-41-13a51 51 0 0 1-13-36v-4a1991 1991 0 0 1 0-71c-1-19 1-33 14-47 9-9 21-13 34-13Z"/><path fill="#090A11" d="M117 90a5673 5673 0 0 0 121 1 20508 20508 0 0 1 88 0c23 0 42 2 59 19 13 13 18 29 18 47v3a1510 1510 0 0 1 0 17v3c0 6-1 11-5 16-5 4-10 6-17 6-5-1-8-3-12-7-4-6-4-11-4-17a16628 16628 0 0 0-1-20v-2c0-8-2-14-8-20-8-7-18-7-28-7a874918145 874918145 0 0 0-90 0h-4a27035 27035 0 0 1-124 0h-3c-10 0-18 1-26 8-6 8-6 16-6 26a2379 2379 0 0 1 0 15v9a6230 6230 0 0 0-1 93c0 8 2 15 8 22 5 5 12 7 19 7h2a532 532 0 0 0 52 1c16 0 16 0 23 5 5 6 6 10 5 17 0 5-2 9-6 12-5 4-9 4-15 4h-2a997 997 0 0 1-51 0c-21 1-39-4-55-19-18-19-19-43-19-68v-12a4907 4907 0 0 1 0-73c0-26 2-48 21-68 17-16 38-18 61-18Z"/></svg>