<svg xmlns="http://www.w3.org/2000/svg" width="512" height="512"><path d="m85 115 2 1 5 4 15 10 3 2a2285 2285 0 0 0 88 59l35 23v-3a10777 10777 0 0 1 1-78v-2c0-7 1-13 5-18 7-5 11-7 19-7 7 1 13 5 19 9l2 1 5 4 15 10 3 2a2284 2284 0 0 0 77 51 3486 3486 0 0 0 48 32l3 2 5 3 13 9 7 5 3 1c6 4 10 8 12 15 1 6 0 12-3 18-3 5-8 8-13 11l-2 2-6 3-15 10-3 2a2263 2263 0 0 0-77 51l-42 28-34 23-2 2c-7 4-13 7-21 6-7-2-11-5-15-11-3-5-3-10-3-16v-2a3698 3698 0 0 1-1-31v-48l-2 1a5497 5497 0 0 1-107 72l-36 24a1123 1123 0 0 0-9 6l-2 1c-6 4-12 5-19 4-7-3-11-8-15-14l-1-9v-9a5449 5449 0 0 1 0-89v-5a1216268 1216268 0 0 0 0-148c0-7 1-13 5-19 13-11 25-7 38 2Z"/></svg>