<svg xmlns="http://www.w3.org/2000/svg" width="512" height="512"><path d="m130 22 18 11a220965 220965 0 0 1 29 16l2 1a2403 2403 0 0 1 101 58 22010 22010 0 0 0 26 15l2 1a6631 6631 0 0 1 52 30l2 1a22232 22232 0 0 0 26 15l2 1a2581 2581 0 0 1 46 27c22 12 43 24 51 49 2 12-1 23-7 34-13 19-37 29-57 41a4728 4728 0 0 0-51 29l-2 1a22232 22232 0 0 1-26 15l-2 1a2403 2403 0 0 0-99 57l-2 1a22010 22010 0 0 1-26 15l-2 1a5877 5877 0 0 0-99 57 78 78 0 0 1-55 12c-12-4-21-11-27-22-5-10-7-21-7-32v-10a10722 10722 0 0 0 0-19v-15a40186 40186 0 0 1 0-112v-3a1028992350 1028992350 0 0 1 0-235c0-13 0-27 7-39l1-2C39 11 47 5 58 1c26-7 51 8 72 21Z"/></svg>