<svg xmlns="http://www.w3.org/2000/svg" width="512" height="512"><path d="M268 109c5 4 9 9 10 15v11a3698 3698 0 0 1 1 31v48l2-1a5497 5497 0 0 1 107-72l36-24a1123 1123 0 0 0 9-6l2-1c6-4 12-5 19-3s11 7 15 13l1 9v5a863583302 863583302 0 0 1 0 93v3a414977931 414977931 0 0 1 0 147v3c0 7-1 13-5 19-7 5-11 7-19 7-7-1-13-5-19-9l-2-1-5-4-15-10-3-2a2285 2285 0 0 0-88-59l-35-23v3a10777 10777 0 0 1-1 78v2c0 7-1 13-5 18-7 5-11 7-19 7-7-1-13-5-19-9l-2-1-5-4-15-10-3-2a2284 2284 0 0 0-77-51 3486 3486 0 0 0-48-32l-3-2a113274 113274 0 0 1-18-12l-7-5-3-1c-6-4-10-8-12-15-1-6 0-12 3-18 3-5 8-8 13-11l2-2 6-3 15-10 3-2a2263 2263 0 0 0 77-51l42-28 34-23 2-2c10-6 19-8 29-3Z"/></svg>