<svg xmlns="http://www.w3.org/2000/svg" width="512" height="512"><path d="M146 168h3a2493 2493 0 0 1 22 0h2c12 0 12 0 17 4l2 2 2 2c2 4 2 8 2 13-2 6-6 9-11 12h-11a14022 14022 0 0 0-28 1h-3c-7 0-13 0-18 5-4 5-4 9-4 15a488513739 488513739 0 0 0 0 198l-1 2c1 6 2 10 5 15 4 3 8 4 13 4h9a4657 4657 0 0 0 82 0h11a21447 21447 0 0 1 131 0c6 0 11-1 16-5 4-5 4-10 4-16v-11a8288 8288 0 0 1 0-24v-14a22262 22262 0 0 0 0-148v-3c0-5-1-9-4-14-5-3-8-4-14-4h-6a8895 8895 0 0 1-28 0h-4c-6-1-9-1-14-5-4-4-5-8-5-14 0-5 3-9 7-12 6-3 12-3 19-3h3a2368 2368 0 0 1 15 0c19 0 37 1 52 15a56 56 0 0 1 13 41 1854 1854 0 0 1 0 33v14a22854 22854 0 0 1 0 142c0 18-1 34-14 48a58 58 0 0 1-42 14h-3a4709 4709 0 0 1-90 0h-2a1352034907 1352034907 0 0 1-121 0c-19 0-37 0-52-14a56 56 0 0 1-14-39v-3a3713 3713 0 0 1 0-117 15178 15178 0 0 1 0-72c0-17 1-34 13-47 14-13 28-15 46-15Z"/><path d="M269 42a165 165 0 0 1 16 16 18654 18654 0 0 0 51 51c5 5 9 9 9 17-1 6-3 10-8 14-4 2-8 2-12 2-7-2-12-7-17-13a2338 2338 0 0 0-11-11l-8-8a5366 5366 0 0 1-15-12 44689 44689 0 0 1 0 202c-1 6-2 10-5 15-4 4-8 5-14 5-6-1-8-3-12-7-3-5-3-9-3-15v-11a5196 5196 0 0 0-1-23v-18a18348 18348 0 0 1 0-151l-2 2a7597 7597 0 0 1-38 39l-3 2c-4 4-8 4-13 4s-8-3-11-6c-3-4-3-6-3-11l-1-3c2-7 9-13 14-18l2-2a2684 2684 0 0 1 54-54l2-2c9-9 18-12 29-4Z"/></svg>