<svg xmlns="http://www.w3.org/2000/svg" width="512" height="512"><path d="m87 40 8 8 3 2a2774 2774 0 0 1 74 75 23767 23767 0 0 0 60 60l2 1a12351 12351 0 0 0 39 40l2 2c8 8 13 16 13 28 0 21-19 35-33 49a38678 38678 0 0 0-56 55l-2 2-1 2-4 3-1 2a35609 35609 0 0 0-98 97l-2 2c-8 9-16 13-28 13-10 0-17-3-24-10-8-8-9-18-8-29 2-11 10-18 17-25l2-3a3105 3105 0 0 1 25-25l13-12a39936 39936 0 0 1 49-49l2-2a424670 424670 0 0 0 69-69l-5-7-2-2-2-2-2-2-6-7a12503 12503 0 0 1-56-55l-2-2-21-21-1-1-2-2a20611 20611 0 0 1-56-56C31 79 31 79 31 64c0-10 4-18 11-25 13-12 31-9 45 1Z"/><path d="m279 40 8 8 3 2a2774 2774 0 0 1 74 75 23767 23767 0 0 0 101 101l2 2c9 9 13 17 13 30 0 14-10 23-19 32l-2 3a4021 4021 0 0 1-38 38l-2 1a2113855 2113855 0 0 0-133 133l-2 2c-9 9-16 14-29 14-10 0-17-3-24-10-8-8-9-18-8-29 2-11 10-18 17-25l2-3a3105 3105 0 0 1 25-25l13-12a39936 39936 0 0 1 49-49l2-2a424670 424670 0 0 0 69-69l-5-7-2-2-2-2-2-2-6-7a12503 12503 0 0 1-56-55l-2-2-21-21-1-1-2-2a20611 20611 0 0 1-56-56c-22-21-22-21-22-36 0-10 4-18 11-25 13-12 31-9 45 1Z"/></svg>