<svg xmlns="http://www.w3.org/2000/svg" width="321" height="512"><path d="M298 18c6 3 8 7 10 13v17a12485 12485 0 0 0 0 21v17a47335 47335 0 0 1 0 389c0 7-1 11-5 16-5 4-9 5-16 4-5 0-8-3-12-6l-2-2-7-6-10-7-2-2a1010 1010 0 0 0-60-48 801 801 0 0 0-43-34 895 895 0 0 1-21-17l-5-5c-10-9-18-10-31-9a1005 1005 0 0 1-20 0H43c-13 0-23-1-33-9-9-10-10-19-10-32a2813 2813 0 0 0 0-17v-10a7606 7606 0 0 1-1-99 39 39 0 0 1 6-24c6-9 14-13 24-15h48c25 2 25 2 48-8l5-5 8-8a736 736 0 0 0 5-4l10-7a992 992 0 0 1 60-48 992 992 0 0 1 56-45l2-2 4-3c7-6 14-8 23-5Z"/></svg>